# Blender v2.79 (sub 0) OBJ File: ''
# www.blender.org
mtllib wall0.mtl
o Cube
v 1.000000 -1.000000 -1.000000
v 1.000000 -1.000000 1.000000
v -1.000000 -1.000000 1.000000
v -1.000000 -1.000000 -1.000000
v 1.000000 1.000000 -0.999999
v -1.000000 1.000000 -1.000000
v 1.000000 -1.000000 -1.300379
v -1.000000 -1.000000 -1.300379
v 1.000000 1.000000 -1.300378
v -1.000000 1.000000 -1.300379
vn 0.0000 -1.0000 0.0000
vn 1.0000 -0.0000 0.0000
vn -0.0000 0.7071 0.7071
vn -1.0000 -0.0000 0.0000
vn 0.0000 0.0000 -1.0000
vn 0.0000 1.0000 0.0000
usemtl Material
s off
f 1//1 2//1 3//1 4//1
f 1//2 5//2 2//2
f 3//3 2//3 5//3 6//3
f 4//4 6//4 10//4 8//4
f 6//4 4//4 3//4
f 9//5 7//5 8//5 10//5
f 1//1 4//1 8//1 7//1
f 6//6 5//6 9//6 10//6
f 5//2 1//2 7//2 9//2
